Coordinates
version=1
nRows=29
nColumns=24
inDegrees=yes

Units are S.I. units (second, meters, Newtons, ...)
Angles are in degrees.

endheader
time	pelvis_tilt	pelvis_list	pelvis_rotation	pelvis_tx	pelvis_ty	pelvis_tz	hip_flexion_r	hip_adduction_r	hip_rotation_r	knee_angle_r	ankle_angle_r	subtalar_angle_r	mtp_angle_r	hip_flexion_l	hip_adduction_l	hip_rotation_l	knee_angle_l	ankle_angle_l	subtalar_angle_l	mtp_angle_l	lumbar_extension	lumbar_bending	lumbar_rotation
      4.72000000	    -13.43920477	     11.06386636	     -9.67040843	      0.66764464	     -0.02054753	      0.01134814	     21.65350237	    -16.38231394	      0.50789490	    -60.85508095	    -23.81063994	     11.01145022	     45.62307456	     27.11654389	      9.69184321	    -17.44200870	    -13.81801843	     -7.96961808	      4.35505072	     11.08469292	     13.40371620	    -12.42295102	      4.72427570
      4.72500000	    -13.34641961	     10.88722909	     -9.44660435	      0.67336421	     -0.01952259	      0.01044972	     22.14244228	    -16.20845171	      0.57219355	    -61.52999959	    -23.51690733	     11.17969875	     46.62400695	     26.46048752	      9.80875137	    -17.10045792	    -13.51648959	     -7.75115216	      4.51856257	     11.10085461	     13.26044228	    -12.28296839	      4.36361433
      4.73000000	    -13.24869119	     10.70059320	     -9.22203845	      0.67910457	     -0.01849018	      0.00956316	     22.60617255	    -16.01747790	      0.63310212	    -62.14434543	    -23.20042972	     11.41217192	     47.59487725	     25.78974423	      9.90977121	    -16.77803734	    -13.20495905	     -7.53037028	      4.71498603	     11.11606344	     13.12060009	    -12.13223745	      3.99744226
      4.73500000	    -13.16369847	     10.50305664	     -8.97386734	      0.68483464	     -0.01748529	      0.00864148	     23.06278581	    -15.81724348	      0.66724259	    -62.71092372	    -22.84958910	     11.70044889	     48.48077388	     25.12989372	     10.00346964	    -16.41689224	    -12.89312356	     -7.32465015	      4.87467194	     11.11711237	     12.99158810	    -11.97051355	      3.61399022
      4.74000000	    -13.08107088	     10.29529868	     -8.71719207	      0.69054558	     -0.01650321	      0.00771538	     23.50727407	    -15.60315128	      0.68891174	    -63.23354690	    -22.45850013	     12.02971155	     49.25231589	     24.47259125	     10.08147747	    -16.05148386	    -12.58443896	     -7.12215077	      5.03861814	     11.11995655	     12.86439308	    -11.79865406	      3.22902054
      4.74500000	    -13.05117510	     10.08021825	     -8.46300542	      0.69621954	     -0.01560291	      0.00681316	     24.01033163	    -15.35547870	      0.73256435	    -63.74094691	    -22.01052249	     12.47141761	     49.61992520	     23.87887973	     10.12538072	    -15.72149534	    -12.28515692	     -6.92589510	      5.23561804	     11.18663814	     12.79799030	    -11.60705227	      2.86524076
      4.75000000	    -12.98825017	      9.85544244	     -8.18508744	      0.70189532	     -0.01468691	      0.00586827	     24.44922381	    -15.11835995	      0.72712780	    -64.18497657	    -21.53575573	     12.86476284	     50.05412995	     23.24465399	     10.17399343	    -15.34282101	    -11.98250306	     -6.74001755	      5.39647180	     11.21247293	     12.69240650	    -11.41572332	      2.47091776
      4.75500000	    -12.91889314	      9.62197065	     -7.89858400	      0.70756715	     -0.01378931	      0.00490046	     24.86413492	    -14.87664567	      0.69652674	    -64.57599198	    -21.03788695	     13.19495331	     50.48643981	     22.60185658	     10.21337711	    -14.94744408	    -11.67946493	     -6.55208017	      5.53785615	     11.22050141	     12.58139231	    -11.21331247	      2.08032982
      4.76000000	    -12.85142129	      9.38292156	     -7.60522523	      0.71323084	     -0.01292031	      0.00391085	     25.26861047	    -14.63131906	      0.64566908	    -64.92007299	    -20.51760356	     13.45364393	     50.87527817	     21.96250338	     10.24198013	    -14.54770866	    -11.37984288	     -6.36796026	      5.67400229	     11.22004755	     12.47381570	    -11.00432627	      1.69226582
      4.76500000	    -12.79188417	      9.14147162	     -7.31147560	      0.71886185	     -0.01209674	      0.00292192	     25.67745288	    -14.38290244	      0.57808831	    -65.22642465	    -19.97283818	     13.64564961	     51.17695169	     21.33708338	     10.25704767	    -14.15291946	    -11.08576883	     -6.18570939	      5.81457904	     11.22556668	     12.37985627	    -10.78841968	      1.31322071
      4.77000000	    -12.73622482	      8.89231625	     -7.00617596	      0.72447710	     -0.01130561	      0.00190876	     26.07744796	    -14.13164303	      0.48539156	    -65.48785286	    -19.41369287	     13.76533349	     51.39522756	     20.71936933	     10.25981830	    -13.75434333	    -10.79774056	     -6.00603769	      5.95440776	     11.23206073	     12.28946841	    -10.56460730	      0.92985313
      4.77500000	    -12.68349883	      8.63763980	     -6.69055294	      0.73008251	     -0.01054816	      0.00086515	     26.46803826	    -13.87871547	      0.37209642	    -65.70402148	    -18.84560871	     13.80057340	     51.52354815	     20.10768153	     10.25381082	    -13.35134833	    -10.51364670	     -5.82564885	      6.08659622	     11.23725438	     12.20156273	    -10.33033909	      0.54347259
      4.78000000	    -12.64040654	      8.37875271	     -6.37305313	      0.73565631	     -0.00983664	     -0.00018028	     26.86429732	    -13.62304572	      0.24127731	    -65.88166845	    -18.26731026	     13.76219247	     51.55660427	     19.51353286	     10.23279209	    -12.94920616	    -10.23838549	     -5.65144866	      6.21963074	     11.24956972	     12.12842261	    -10.09258011	      0.16536328
      4.78500000	    -12.59973214	      8.11320865	     -6.04530172	      0.74121146	     -0.00915680	     -0.00124772	     27.25157051	    -13.36668443	      0.08584735	    -66.01381531	    -17.69140450	     13.64048444	     51.49205538	     18.92697125	     10.20153761	    -12.53871139	     -9.96899836	     -5.47832041	      6.33764771	     11.25807845	     12.05786215	     -9.84508953	     -0.21828920
      4.79000000	    -12.56139231	      7.84287888	     -5.71118471	      0.74675563	     -0.00851517	     -0.00235310	     27.63125391	    -13.11188138	     -0.08705635	    -66.10192523	    -17.11475143	     13.44716651	     51.32350666	     18.34823030	     10.16200353	    -12.11854799	     -9.70761997	     -5.30726860	      6.43541662	     11.25770856	     11.99109100	     -9.58830850	     -0.60049247
      4.79500000	    -12.53331727	      7.57074289	     -5.37696924	      0.75226931	     -0.00792003	     -0.00344570	     28.01888520	    -12.85538079	     -0.27307981	    -66.14987747	    -16.54585717	     13.19059999	     51.07731361	     17.78681379	     10.11072003	    -11.69652111	     -9.45113363	     -5.13878851	      6.52107242	     11.25475137	     11.93914185	     -9.32852844	     -0.97002234
      4.80000000	    -12.50759618	      7.29647086	     -5.03940327	      0.75776508	     -0.00736171	     -0.00455462	     28.40124509	    -12.60114095	     -0.47189569	    -66.15335503	    -15.98432734	     12.87949658	     50.74417063	     17.23425122	     10.05186205	    -11.26804151	     -9.20207871	     -4.97243663	      6.58603960	     11.24075173	     11.89249818	     -9.06383163	     -1.33642854
      4.80500000	    -12.41539809	      7.04943743	     -4.68981949	      0.76322938	     -0.00680795	     -0.00572566	     28.70743574	    -12.40174663	     -0.67760429	    -66.14583876	    -15.34370502	     12.71703107	     49.89770482	     16.61417511	     10.03759139	    -10.79175557	     -8.95428874	     -4.81227924	      6.53989800	     11.11143604	     11.77331794	     -8.83113096	     -1.72758233
      4.81000000	    -12.41803626	      6.77477741	     -4.36796115	      0.76870840	     -0.00634931	     -0.00681003	     29.11466933	    -12.13715864	     -0.86986157	    -66.07779218	    -14.79603557	     12.40925375	     49.14649798	     16.10293683	      9.95379591	    -10.36071328	     -8.71871620	     -4.63076293	      6.59675518	     11.07364395	     11.77278923	     -8.55516334	     -2.03283456
      4.81500000	    -12.44223666	      6.50691409	     -4.04593303	      0.77411564	     -0.00595370	     -0.00788446	     29.54579975	    -11.87797099	     -1.07223211	    -65.94268608	    -14.30469259	     11.90009180	     48.87743723	     15.63227864	      9.86522650	     -9.99387996	     -8.49389719	     -4.46616860	      6.67728091	     11.09669141	     11.79178867	     -8.28309272	     -2.34833216
      4.82000000	    -12.37827233	      6.24686895	     -3.67402052	      0.77949699	     -0.00552520	     -0.00905613	     29.85219199	    -11.67810592	     -1.32875474	    -65.77713500	    -13.73830265	     11.56796716	     48.18630047	     15.06974362	      9.81057792	     -9.52586936	     -8.28085493	     -4.29848207	      6.66016577	     11.02523344	     11.70398916	     -8.04162646	     -2.74568098
      4.82500000	    -12.41185205	      5.96948984	     -3.37974403	      0.78491363	     -0.00517269	     -0.01009629	     30.27624538	    -11.39744015	     -1.51868355	    -65.53543904	    -13.30529336	     11.06972643	     47.78919745	     14.61035916	      9.69025971	     -9.15483357	     -8.05294279	     -4.13624877	      6.72238113	     11.02387836	     11.75247041	     -7.74673776	     -2.99442006
      4.83000000	    -12.40280938	      5.70209459	     -3.03369022	      0.79027790	     -0.00483994	     -0.01120603	     30.63291145	    -11.17056621	     -1.76903414	    -65.25846507	    -12.83675385	     10.61970360	     47.27028743	     14.11869773	      9.59391976	     -8.74053216	     -7.84683300	     -3.96396671	      6.76972161	     11.00521909	     11.74172997	     -7.48037450	     -3.32272414
      4.83500000	    -12.30681316	      5.48305803	     -2.67352930	      0.79564262	     -0.00450226	     -0.01234928	     30.88942789	    -11.02527112	     -2.02530998	    -64.98465547	    -12.25846432	     10.43833215	     46.09460660	     13.52497559	      9.55985574	     -8.26894886	     -7.62637634	     -3.79349847	      6.74789111	     10.87048090	     11.63850342	     -7.27415363	     -3.63190219
      4.84000000	    -12.35871680	      5.22268797	     -2.41057678	      0.80093291	     -0.00429034	     -0.01331357	     31.32828471	    -10.74363977	     -2.18395794	    -64.60963289	    -11.87202201	      9.96519742	     45.72307829	     13.11977775	      9.42514057	     -7.96788399	     -7.43065616	     -3.61695369	      6.81381685	     10.88917705	     11.70857527	     -6.98984583	     -3.86284268
      4.84500000	    -12.27562217	      4.99047785	     -2.07832896	      0.80623733	     -0.00401142	     -0.01436470	     31.58618995	    -10.55964098	     -2.41885302	    -64.23294228	    -11.35064345	      9.78644000	     44.59941878	     12.55297468	      9.34582076	     -7.52745486	     -7.22129948	     -3.42940465	      6.83419089	     10.79476218	     11.62224035	     -6.76564580	     -4.15450539
      4.85000000	    -12.32782622	      4.75621346	     -1.78455330	      0.81147955	     -0.00388568	     -0.01534199	     32.00305686	    -10.33929778	     -2.63184212	    -63.76890893	    -10.97551029	      9.32950505	     44.30405688	     12.16481139	      9.23418340	     -7.24292385	     -7.04212967	     -3.26221060	      6.92162365	     10.82830293	     11.68920570	     -6.52003223	     -4.38211959
      4.85500000	    -12.25114001	      4.54174093	     -1.43156321	      0.81671698	     -0.00367222	     -0.01640060	     32.24581187	    -10.19818699	     -2.91534985	    -63.27997808	    -10.51564911	      9.06782476	     43.54879690	     11.62580306	      9.16086517	     -6.84444512	     -6.85261228	     -3.09237034	      6.99390936	     10.79326901	     11.60678565	     -6.31598379	     -4.67761695
      4.86000000	    -12.22893114	      4.30932991	     -1.15831160	      0.82193626	     -0.00352776	     -0.01732871	     32.55829712	     -9.97149869	     -3.09995033	    -62.74473576	    -10.09358679	      8.88298787	     42.72086282	     11.15103020	      9.03843449	     -6.51001590	     -6.66070826	     -2.91158756	      7.04361440	     10.76137847	     11.59482916	     -6.07139729	     -4.91101717
